<mxfile host="65bd71144e">
    <diagram id="Ht1M8jgEwFfnCIfOTk4-" name="Page-1">
        <mxGraphModel dx="1015" dy="802" grid="1" gridSize="10" guides="1" tooltips="1" connect="1" arrows="1" fold="1" page="1" pageScale="1" pageWidth="827" pageHeight="1169" math="0" shadow="0">
            <root>
                <mxCell id="0"/>
                <mxCell id="1" parent="0"/>
                <mxCell id="jZVaUwOg5UY3L9NAnvdq-71" value="AWS Cloud" style="points=[[0,0],[0.25,0],[0.5,0],[0.75,0],[1,0],[1,0.25],[1,0.5],[1,0.75],[1,1],[0.75,1],[0.5,1],[0.25,1],[0,1],[0,0.75],[0,0.5],[0,0.25]];outlineConnect=0;gradientColor=none;html=1;whiteSpace=wrap;fontSize=12;fontStyle=0;shape=mxgraph.aws4.group;grIcon=mxgraph.aws4.group_aws_cloud_alt;strokeColor=#232F3E;fillColor=none;verticalAlign=top;align=left;spacingLeft=30;fontColor=#232F3E;dashed=0;labelBackgroundColor=none;container=1;pointerEvents=0;collapsible=0;recursiveResize=0;" parent="1" vertex="1">
                    <mxGeometry x="42" y="40" width="648" height="360" as="geometry"/>
                </mxCell>
                <mxCell id="62ASdKqzcNbD3jh50bKH-13" value="&lt;b&gt;VPC&lt;/b&gt;" style="points=[[0,0],[0.25,0],[0.5,0],[0.75,0],[1,0],[1,0.25],[1,0.5],[1,0.75],[1,1],[0.75,1],[0.5,1],[0.25,1],[0,1],[0,0.75],[0,0.5],[0,0.25]];outlineConnect=0;gradientColor=none;html=1;whiteSpace=wrap;fontSize=12;fontStyle=0;container=1;pointerEvents=0;collapsible=0;recursiveResize=0;shape=mxgraph.aws4.group;grIcon=mxgraph.aws4.group_vpc;strokeColor=#248814;fillColor=none;verticalAlign=top;align=left;spacingLeft=30;fontColor=#AAB7B8;dashed=0;" parent="jZVaUwOg5UY3L9NAnvdq-71" vertex="1">
                    <mxGeometry x="38" y="40" width="382" height="300" as="geometry"/>
                </mxCell>
                <mxCell id="63" value="Subnets" style="points=[[0,0],[0.25,0],[0.5,0],[0.75,0],[1,0],[1,0.25],[1,0.5],[1,0.75],[1,1],[0.75,1],[0.5,1],[0.25,1],[0,1],[0,0.75],[0,0.5],[0,0.25]];outlineConnect=0;gradientColor=none;html=1;whiteSpace=wrap;fontSize=12;fontStyle=0;container=1;pointerEvents=0;collapsible=0;recursiveResize=0;shape=mxgraph.aws4.group;grIcon=mxgraph.aws4.group_security_group;grStroke=0;strokeColor=#147EBA;fillColor=#E6F2F8;verticalAlign=top;align=left;spacingLeft=30;fontColor=#147EBA;dashed=0;" parent="62ASdKqzcNbD3jh50bKH-13" vertex="1">
                    <mxGeometry x="160" y="40" width="190" height="240" as="geometry"/>
                </mxCell>
                <mxCell id="58" value="ECS: Service" style="sketch=0;points=[[0,0,0],[0.25,0,0],[0.5,0,0],[0.75,0,0],[1,0,0],[0,1,0],[0.25,1,0],[0.5,1,0],[0.75,1,0],[1,1,0],[0,0.25,0],[0,0.5,0],[0,0.75,0],[1,0.25,0],[1,0.5,0],[1,0.75,0]];outlineConnect=0;fontColor=#232F3E;gradientColor=#F78E04;gradientDirection=north;fillColor=#D05C17;strokeColor=#ffffff;dashed=0;verticalLabelPosition=bottom;verticalAlign=top;align=center;html=1;fontSize=12;fontStyle=1;aspect=fixed;shape=mxgraph.aws4.resourceIcon;resIcon=mxgraph.aws4.ecs;" parent="63" vertex="1">
                    <mxGeometry x="70" y="45" width="50" height="50" as="geometry"/>
                </mxCell>
                <mxCell id="51" value="Service&lt;br&gt;Security Group" style="sketch=0;aspect=fixed;html=1;points=[];align=center;image;fontSize=12;image=img/lib/mscae/Network_Security_Groups_Classic.svg;fontStyle=1" parent="63" vertex="1">
                    <mxGeometry x="77.97999999999999" y="140" width="34.04" height="46" as="geometry"/>
                </mxCell>
                <mxCell id="65" value="Forward action" style="edgeStyle=orthogonalEdgeStyle;html=1;entryX=0.25;entryY=0;entryDx=0;entryDy=0;" parent="62ASdKqzcNbD3jh50bKH-13" target="60" edge="1">
                    <mxGeometry x="-0.0311" y="-6" relative="1" as="geometry">
                        <mxPoint x="74" y="150" as="sourcePoint"/>
                        <Array as="points">
                            <mxPoint x="74" y="170"/>
                            <mxPoint x="62" y="170"/>
                        </Array>
                        <mxPoint x="6" y="6" as="offset"/>
                    </mxGeometry>
                </mxCell>
                <mxCell id="64" value="Load Balancer&lt;br&gt;Listeners" style="sketch=0;outlineConnect=0;fontColor=#232F3E;gradientColor=none;fillColor=#BF0816;strokeColor=none;dashed=0;verticalLabelPosition=bottom;verticalAlign=top;align=center;html=1;fontSize=12;fontStyle=1;aspect=fixed;pointerEvents=1;shape=mxgraph.aws4.waf_rule;" parent="62ASdKqzcNbD3jh50bKH-13" vertex="1">
                    <mxGeometry x="54.25" y="70" width="40" height="40" as="geometry"/>
                </mxCell>
                <mxCell id="67" value="Redirect to &lt;br&gt;service port" style="edgeStyle=orthogonalEdgeStyle;html=1;entryX=0;entryY=0.5;entryDx=0;entryDy=0;entryPerimeter=0;" parent="62ASdKqzcNbD3jh50bKH-13" source="60" target="58" edge="1">
                    <mxGeometry relative="1" as="geometry"/>
                </mxCell>
                <mxCell id="60" value="Load Balancer&#10;Target Group" style="shape=image;verticalLabelPosition=bottom;labelBackgroundColor=default;verticalAlign=top;aspect=fixed;imageAspect=0;image=data:image/png,iVBORw0KGgoAAAANSUhEUgAAAOEAAADhCAMAAAAJbSJIAAAAkFBMVEX////UWwfRSADUWQDSTgDTVQDSUQDRTQDjnXvTVAD349nUWgDjm3jvx7X24df9+PTosJTbe0TwzLv56eHWZR/bfUzOOwDmqIruxLDehlfWYhX67ujsvKb02MvZczvXZyPqtZzy08Tfil/ZbizhlXHdhFnadT788/Dlo4TYbjHcgFHmqI/fil3hkGjnqpLXZyjjQQjAAAAIfElEQVR4nO2df3+qLBjGUxQym7bV2dbv2lrbzjmdvf9390SCgoKC0xo8fP/ap5Hdl5feICAMBg6Hw+FwOBwOB8fzXcbzrQPpjUeY8XjrQHrD9zL8WwfSG06h+TiF5uMUmo9TaD5Oofk4hebjFJqPU2g+lik8jCsfyRWOD9cIqVvGQVCRKFUoKvzTGQeeFwxLH8oUDnFhwyRigdWoJQrFhX82WcwVF8UKh7SwQRIPJGbPQ1zUQoVjRAsHxqSbqQ+8PGrWRZHCYX42POBPrx1qW0awkIgYiQKFQ1QIhKPrh9oWViJze1UVjgMzBcpcrCg01UGM0MWyQnMdxHASiYslhUOjBZ4lBhUXeYVmO4hJgrKLnELTHcRw6Qa7yCocG5xkCsr3IqPQBgcxpUqjUGhyNcHDufgUkb+iJ0scxLASI8FfxgvkJVaxQGC9RCsE8lV/SWBghUC+6ucFJrcOrSvEF6oll2iGyEWrBIpctEzg2cWSROsEliUCaE2SKWArDWuqCZ7CRSsdxFAXLXUQkyAsESBLHcRMNz5CR2N6tluxXC9vHYLD4XA4HA6Hw+Fw/HTS9+koGS3TW8fRD+vJ/Cs6P/+eCbzj4dmux+D0ee4HUZj3tcUghCg87G8dV1dMD5Fo3CIO0WJ369i6YHnyw1g49IR7FcPdreMjPLTuHXsKQom8zEi4eGh76KT1N6s8+C1H+qYzWKfv4qP/0i6oEfQ7k7j3YxCsW3xxherG8CnRok0H8QiC2O8oVz2g830UI32JY78sBmSUP0X6ZlyG6+IWXxTw4F8SRYx0T9hLwOuACC428/n8OIsQn1xjf6V5bDIeGXdxoV4cbCPxDXLy/ONqTRszabI7+pxITYn5gGsHLq4f81Svd8L+MgLjYLsrN9XS1TZgahFfZ0UXZtA8fmyTIDiYWaCef6f8tQnzNQjE4T8D5ixo3OeCmavfYshKVD3T+yLJAP9JWuyjeG8BANUGeXXe6nfhXFS7X9KiGROCOnPWRWINf6uF07WDGGaqpKLEUz41L9rUW/P+mrd5kNIFkkje5fgerIto11x+nV+j0a/GwhsqMQ4VrtOkBwcxY9bFSWPxTxpFuFE4eF46arYkKU+s7gzORXnmyLijhUGskj3e85s2aBo97ctBDOtik8RXGobigH2eeKOGoNkk062DGLbSQB91Jdf0ZMDm6zljTBMTqvU8QV1XE6UwWIl1xz+Q1AEWyseOyHUKdzWFElS0gfp5G5N1seZlyLwu1GgyrkjjBnzKy3Rf0VcZK0ncB83RVvBI9EjaBddnkingJJ4khYbkpoI6bekJ/dJOUoAV2F1FX4WVCCW9DwsSitbCCUuSTsGb+P/XcRDDSRRGk5JYQ73uF1rtQ+F/k16rCR5OoqitnKAWF+lg8C+quRGv5yDmKayX+AybcoYQmp9EPV6swLCpQVXPq98M1/0ZHSvH2GVmxMqPexnvRCGsPrusEdujHCrE+Cr9mXuVzj+O6rPDR6ZQq67AxJmMaFf+R4JkXeYywH2HCr2g3DIjLRqg+DybQ1JN9Kf0+bL2vakrKIzj0jHGmcJQVl3KOBKF5bpuXjsqcAWFlcYyqfA1K4vB4G+mJCo36oO6H7+GQlD2kN6Hc02FJ6LwH/9xiup+/RoKg13pGCSX1vyKGOJhpdn22eKsd6mwmkvJYwL40lRIfrvSUFhXBj++o1ClPuSGk6JqPwypupW6lVi+suNWa/wdJxGEzcBqLa0Fc9lEgpM1JTeO5isHKWm1+dWumglzK4LNx7CRsWrfgjiSWZG9BS2aM7RdqjfWQro+4kjwvwnjYtj39IZ0wQgUX+6/yYsxesl0UlfJMC52Mp5WA+eg5H6ekKa3r3UjbkGd81eTqODgYDBqc5nSL8meSFiJ3Qz8ClFx8MyMXKY69QVtzUq/w6ab3lxsTjIZf+jDrHogS/rstJMWYdJNXy4qOnh+1KN9Lur9pS9h873b+72o6uCgiFe5z3tPgg9rl6Tr2UUuyTQMmdG04SG1iTJpTHtL60dmenVR+RK98Jf268+UDn5PikdNqwqyVX/HLuo4eGZJT3ao8oRxIhVoHDTWoL25yDnYLLCo9T3Y3LLJh0MChQq0J4maDmLy5jlscnFOBSr53U/Vr+3gmSUdL/PCWV26mW7p0KHaeHEvVb9ekqEUD64AySuNXf60GfuqT1udVxptHMSsinMNt+JHnv1XMSdKw46O78WlSmNbHAgzLQq9VrJIunplugu0prV16+J7YaGOg5idX3RWA4heVkk+N3G9umfnJurGybr4/Zl7+VWq5yDmwWf7dPALCLPjfD7fLCA/vxRoz84tJHYxFJVuwzYOYqaLyOMQzhGGn/qLEFCJ3Yy1XSS2EXjm1DjTGzROQBKSSexqMPF8obYUeK41ttK1zDJ99y1fD8ISuxstTWdtBZ5ZbaU+hmjTvutsgrpc//v9W9/e48RZHgQEYYBO38qDT7rDW32yXP2KEIzARWcMQASRd+q3W/D6pMlq+LYNAz8It2/DlcWL8DgcDofD4XA4HA6Hw3Fmv7JmzRYh0xmCaGbX4jsc2WsFFm0YUMb6taCtX8/b+jXZrV9Xv7o3gmUSrd/fwvo9SqzfZ8b6vYKs3+/J+j27rN93zfq986zf/1C6h6Udu5DW7kNq/la5GOv3krV+P2Dr93S2fl9u6/dWHwlXxisrNHjjY6GDAoXGuih2UKTQ0Epj6leTzAWBQs5F35je8EMeNb/kkUgh42KX80X7hhpTWldNqDCvNPpfH6lLMonlmMUKJYV/Ojjqysp4EoUXF00TiCVWY5YpFBb++RyqMUsVDg4GJZk65AptwSk0H6fQfJxC83EKzccpNB+n0HycQvNxCs3HfoWPMOPx1oH0xvNdht6C9A6Hw+FwOByO/wH/ASy9ZTFNL11JAAAAAElFTkSuQmCC;fontStyle=1" parent="62ASdKqzcNbD3jh50bKH-13" vertex="1">
                    <mxGeometry x="50" y="200" width="48.5" height="48.5" as="geometry"/>
                </mxCell>
                <mxCell id="61" value="CloudWatch&lt;br&gt;Log Group" style="sketch=0;outlineConnect=0;fontColor=#232F3E;gradientColor=none;fillColor=#B0084D;strokeColor=none;dashed=0;verticalLabelPosition=bottom;verticalAlign=top;align=center;html=1;fontSize=12;fontStyle=1;aspect=fixed;pointerEvents=1;shape=mxgraph.aws4.logs;" parent="jZVaUwOg5UY3L9NAnvdq-71" vertex="1">
                    <mxGeometry x="458" y="150" width="53.79" height="40" as="geometry"/>
                </mxCell>
                <mxCell id="62" value="KMS Key:&lt;br&gt;Log Group" style="sketch=0;points=[[0,0,0],[0.25,0,0],[0.5,0,0],[0.75,0,0],[1,0,0],[0,1,0],[0.25,1,0],[0.5,1,0],[0.75,1,0],[1,1,0],[0,0.25,0],[0,0.5,0],[0,0.75,0],[1,0.25,0],[1,0.5,0],[1,0.75,0]];outlineConnect=0;fontColor=#232F3E;gradientColor=#F54749;gradientDirection=north;fillColor=#C7131F;strokeColor=#ffffff;dashed=0;verticalLabelPosition=bottom;verticalAlign=top;align=center;html=1;fontSize=12;fontStyle=1;aspect=fixed;shape=mxgraph.aws4.resourceIcon;resIcon=mxgraph.aws4.key_management_service;" parent="jZVaUwOg5UY3L9NAnvdq-71" vertex="1">
                    <mxGeometry x="567.995" y="150" width="40" height="40" as="geometry"/>
                </mxCell>
                <mxCell id="68" value="Secret Manager: &lt;br&gt;Service Secret" style="sketch=0;points=[[0,0,0],[0.25,0,0],[0.5,0,0],[0.75,0,0],[1,0,0],[0,1,0],[0.25,1,0],[0.5,1,0],[0.75,1,0],[1,1,0],[0,0.25,0],[0,0.5,0],[0,0.75,0],[1,0.25,0],[1,0.5,0],[1,0.75,0]];outlineConnect=0;fontColor=#232F3E;gradientColor=#F54749;gradientDirection=north;fillColor=#C7131F;strokeColor=#ffffff;dashed=0;verticalLabelPosition=bottom;verticalAlign=top;align=center;html=1;fontSize=12;fontStyle=1;aspect=fixed;shape=mxgraph.aws4.resourceIcon;resIcon=mxgraph.aws4.secrets_manager;" parent="jZVaUwOg5UY3L9NAnvdq-71" vertex="1">
                    <mxGeometry x="458" y="250" width="50" height="50" as="geometry"/>
                </mxCell>
                <mxCell id="71" value="IAM Task &lt;br&gt;Role" style="sketch=0;outlineConnect=0;fontColor=#232F3E;gradientColor=none;fillColor=#BF0816;strokeColor=none;dashed=0;verticalLabelPosition=bottom;verticalAlign=top;align=center;html=1;fontSize=12;fontStyle=1;aspect=fixed;pointerEvents=1;shape=mxgraph.aws4.role;" parent="jZVaUwOg5UY3L9NAnvdq-71" vertex="1">
                    <mxGeometry x="456.41" y="50" width="53.18" height="30" as="geometry"/>
                </mxCell>
                <mxCell id="72" value="IAM Task &lt;br&gt;Execution Role" style="sketch=0;outlineConnect=0;fontColor=#232F3E;gradientColor=none;fillColor=#BF0816;strokeColor=none;dashed=0;verticalLabelPosition=bottom;verticalAlign=top;align=center;html=1;fontSize=12;fontStyle=1;aspect=fixed;pointerEvents=1;shape=mxgraph.aws4.role;" parent="jZVaUwOg5UY3L9NAnvdq-71" vertex="1">
                    <mxGeometry x="561.4" y="50" width="53.18" height="30" as="geometry"/>
                </mxCell>
            </root>
        </mxGraphModel>
    </diagram>
</mxfile>